<svg width="17" height="17" viewBox="0 0 17 17" fill="none" xmlns="http://www.w3.org/2000/svg">
<path fill-rule="evenodd" clip-rule="evenodd" d="M0.928635 0.928909C1.31916 0.538384 1.97714 0.563195 2.39827 0.984325L16.1237 14.7098C16.5448 15.1309 16.5696 15.7889 16.1791 16.1794C15.7886 16.5699 15.1306 16.5451 14.7095 16.124L0.984052 2.39854C0.562922 1.97741 0.538111 1.31943 0.928635 0.928909Z" fill="#5B4A58"/>
<path fill-rule="evenodd" clip-rule="evenodd" d="M0.928786 16.071C0.538262 15.6805 0.55684 15.0287 0.970282 14.6153L14.4451 1.14046C14.8586 0.727014 15.5103 0.708436 15.9008 1.09896C16.2913 1.48948 16.2728 2.14123 15.8593 2.55467L2.3845 16.0295C1.97105 16.4429 1.31931 16.4615 0.928786 16.071Z" fill="#5B4A58"/>
</svg>
